<svg xmlns="http://www.w3.org/2000/svg" viewBox="0 0 1600 900"><filter id="b"><feGaussianBlur stdDeviation="12" /></filter><path fill="#5f3e1f" d="M0 0h1600v900H0z"/><g filter="url(#b)" transform="matrix(6.25 0 0 6.25 3.1 3.1)" fill-opacity=".5"><ellipse fill="#c1ced2" cx="145" cy="14" rx="121" ry="16"/><ellipse fill="#eb5100" rx="1" ry="1" transform="matrix(1.90751 -20.00987 51.2386 4.8845 120.7 40.2)"/><ellipse fill="#1d0e00" rx="1" ry="1" transform="rotate(-105.4 54.5 48.9) scale(81.15911 67.72055)"/><ellipse fill="#1e0b00" cx="247" cy="82" rx="63" ry="63"/><ellipse fill="#c6e6e0" rx="1" ry="1" transform="matrix(.60434 -9.81616 44.57464 2.74427 159.3 15.6)"/><ellipse fill="#cc4f00" rx="1" ry="1" transform="rotate(-79.3 42.8 -13.2) scale(8.78187 37.58037)"/><ellipse fill="#216180" rx="1" ry="1" transform="matrix(62.77566 -3.42516 .66521 12.19186 235.2 0)"/><ellipse fill="#5b5862" rx="1" ry="1" transform="matrix(.99073 -17.21159 40.99073 2.3595 40 7.1)"/></g></svg>