<svg xmlns="http://www.w3.org/2000/svg" viewBox="0 0 1600 900"><filter id="c"><feGaussianBlur stdDeviation="55" /></filter><path fill="#01431a" d="M0 0h1600v900H0z"/><g filter='url(#c)' fill-opacity='.5'><ellipse fill="#050000" fill-opacity=".5" rx="1" ry="1" transform="matrix(941.21818 167.6565 -28.36544 159.24267 278.6 899.2)"/><path fill="#017633" fill-opacity=".5" d="M1021.9 865.6l-625-812.5 1300 675z"/><ellipse fill="#017924" fill-opacity=".5" rx="1" ry="1" transform="matrix(-181.9968 47.06757 -75.0027 -290.01393 596.4 527)"/><ellipse fill="#100" fill-opacity=".5" rx="1" ry="1" transform="matrix(-59.41494 1.31611 -7.08133 -319.68129 847.5 823.2)"/><ellipse fill="#010000" fill-opacity=".5" rx="1" ry="1" transform="rotate(-68.4 789.6 209.9) scale(156.62161 1238.29779)"/><ellipse fill="#00220b" fill-opacity=".5" rx="1" ry="1" transform="rotate(111.3 -66 146.4) scale(1258.53759 168.17641)"/><ellipse fill="#022824" fill-opacity=".5" rx="1" ry="1" transform="matrix(-163.29005 -11.41835 68.03793 -972.9877 1597 651.8)"/><ellipse fill="#006732" fill-opacity=".5" rx="1" ry="1" transform="matrix(-100.02405 -178.4969 288.9779 -161.93412 1189.7 620)"/></g></svg>