<svg xmlns="http://www.w3.org/2000/svg" viewBox="0 0 1600 900"><filter id="c"><feGaussianBlur stdDeviation="55" /></filter><path fill="#8693aa" d="M0 0h1600v900H0z"/><g filter='url(#c)' fill-opacity='.5'><path fill="#4a4329" fill-opacity=".5" d="M1615.6 365.6l-150 400-1250 31.3z"/><ellipse fill="#bddcff" fill-opacity=".5" rx="1" ry="1" transform="matrix(21.5717 -190.85584 725.80912 82.0354 580.7 186.5)"/><ellipse fill="#2d3644" fill-opacity=".5" rx="1" ry="1" transform="matrix(-32.97966 100.9014 -274.69693 -89.7848 73.3 371.3)"/><ellipse fill="#c5cde8" fill-opacity=".5" rx="1" ry="1" transform="matrix(376.56357 -52.91877 19.37263 137.85332 244.8 649)"/><path fill="#3e3a3a" fill-opacity=".5" d="M346.9 996.9l600-462.5L-59.4 928z"/><ellipse fill="#5581d5" fill-opacity=".5" rx="1" ry="1" transform="matrix(-641.1168 37.00443 -10.85033 -187.98643 1100.8 3.1)"/><ellipse fill="#96a0c5" fill-opacity=".5" rx="1" ry="1" transform="rotate(-69.3 1057 -691.5) scale(85.36787 329.93153)"/><path fill="#564800" fill-opacity=".5" d="M878.1 684.4h637.5v87.5H878.1z"/></g></svg>