<svg xmlns="http://www.w3.org/2000/svg" viewBox="0 0 1600 900"><filter id="b"><feGaussianBlur stdDeviation="12" /></filter><path fill="#e4deda" d="M0 0h1600v900H0z"/><g filter="url(#b)" transform="matrix(6.25 0 0 6.25 3.1 3.1)" fill-opacity=".5"><ellipse fill="#3b1f1c" rx="1" ry="1" transform="matrix(-19.02664 -10.48923 14.61413 -26.5089 224.5 47.5)"/><ellipse fill="#57381c" rx="1" ry="1" transform="rotate(-14.1 679.8 -755) scale(70.43595 20.35801)"/><path fill="#5b3324" d="M118 73l27 40 19-101z"/><ellipse fill="#fff" cx="60" cy="60" rx="68" ry="255"/><path fill="#2e1400" d="M211 94h16v50h-16z"/><path fill="#fff" d="M168 134l44 1-43-151z"/><ellipse fill="#876b75" rx="1" ry="1" transform="matrix(12.80423 -3.86497 5.54623 18.37405 150.7 18.9)"/><path fill="#e2d7ce" d="M216 48l55 83-41 5z"/></g></svg>