<svg xmlns="http://www.w3.org/2000/svg" viewBox="0 0 1600 900"><filter id="b"><feGaussianBlur stdDeviation="12" /></filter><path fill="#4f4f48" d="M0 0h1600v900H0z"/><g filter="url(#b)" transform="matrix(6.25 0 0 6.25 3.1 3.1)" fill-opacity=".5"><ellipse fill="#ffbe72" rx="1" ry="1" transform="matrix(61.66814 43.1805 -14.17018 20.23711 125.8 120.7)"/><ellipse rx="1" ry="1" transform="matrix(-56.1775 -1.07024 .73489 -38.57462 28.1 123.6)"/><ellipse rx="1" ry="1" transform="matrix(31.13359 -29.03254 25.99195 27.87295 223.6 128.6)"/><ellipse fill="#beaa92" rx="1" ry="1" transform="matrix(68.03281 -35.28917 8.71945 16.80994 232.1 62)"/><ellipse fill="#7289a0" rx="1" ry="1" transform="matrix(-1.77056 -17.34418 252.56442 -25.78274 13 61.1)"/><ellipse fill="#000838" rx="1" ry="1" transform="rotate(2.1 -76 3232.7) scale(213.74838 21.81433)"/><ellipse fill="#261a00" cx="126" cy="65" rx="94" ry="9"/><ellipse rx="1" ry="1" transform="rotate(-151.7 28.3 58.4) scale(59.62778 35.72492)"/></g></svg>