<svg xmlns="http://www.w3.org/2000/svg" viewBox="0 0 1600 900"><filter id="b"><feGaussianBlur stdDeviation="12" /></filter><path fill="#b9a277" d="M0 0h1600v900H0z"/><g filter="url(#b)" transform="matrix(6.25 0 0 6.25 3.1 3.1)" fill-opacity=".5"><path fill="#783e00" d="M231 159L40 86l175-25z"/><ellipse fill="#d9d8c4" cx="125" cy="31" rx="255" ry="35"/><path fill="#2f1000" d="M143.5 88.1l-15.3-32.6 16.3-7.6 15.3 32.6z"/><ellipse fill="#3a1000" rx="1" ry="1" transform="matrix(2.23543 13.36614 -7.6051 1.27192 183.3 56.8)"/><path fill="#341c00" d="M165.6 140.6l-18-36.3 56.9 54.7-117.2-17.5z"/><path fill="#f1d7a0" d="M-22.4 103.4l95.6 8.4-4.8 54.8-95.6-8.4z"/><path fill="#392100" d="M74 77h8v67h-8z"/><path fill="#956417" d="M72 78h184v44H72z"/></g></svg>