<svg xmlns="http://www.w3.org/2000/svg" viewBox="0 0 1600 900"><filter id="c"><feGaussianBlur stdDeviation="55" /></filter><path fill="#5f452f" d="M0 0h1600v900H0z"/><g filter='url(#c)' fill-opacity='.5'><ellipse fill="#fff5c0" fill-opacity=".5" rx="1" ry="1" transform="matrix(372.6918 113.88467 -71.46746 233.8799 679 327.1)"/><ellipse fill-opacity=".5" rx="1" ry="1" transform="matrix(-30.03065 -293.2897 1585.46052 -162.3392 1012 868.3)"/><ellipse fill="#fffffc" fill-opacity=".5" rx="1" ry="1" transform="matrix(72.67246 -122.54198 160.42993 95.14157 762.5 380)"/><ellipse fill="#010000" fill-opacity=".5" rx="1" ry="1" transform="matrix(-223.10007 -19.32467 90.42087 -1043.89348 1468 448.5)"/><ellipse fill="#0b0300" fill-opacity=".5" rx="1" ry="1" transform="rotate(-137.1 270.4 352.7) scale(931.04026 230.88776)"/><ellipse fill="#aa6d41" fill-opacity=".5" rx="1" ry="1" transform="matrix(516.48146 -38.83444 11.4997 152.94116 645.6 151.6)"/><path fill="#aa7046" fill-opacity=".5" d="M503 520.3l498.7 34.8L990.8 711 492 676.1z"/><ellipse fill="#ffe4b9" fill-opacity=".5" rx="1" ry="1" transform="matrix(-9.39999 -137.88397 230.94279 -15.7441 741.3 345.3)"/></g></svg>