<svg xmlns="http://www.w3.org/2000/svg" viewBox="0 0 1600 900"><filter id="b"><feGaussianBlur stdDeviation="12" /></filter><path fill="#588265" d="M0 0h1600v900H0z"/><g filter="url(#b)" transform="matrix(6.25 0 0 6.25 3.1 3.1)" fill-opacity=".5"><ellipse fill="#00000b" rx="1" ry="1" transform="matrix(-19.5254 -30.7385 32.08921 -20.38338 5.5 15)"/><ellipse fill="#a4c8ce" cx="134" cy="6" rx="71" ry="27"/><path fill="#98c3cb" d="M64.8 99.3l14.4-34.1 46 19.5-14.4 34.1z"/><ellipse fill="#7fd900" rx="1" ry="1" transform="rotate(-37.6 148.7 -366.9) scale(22.91821 45.23626)"/><ellipse fill="#2e7a0d" cx="115" cy="45" rx="29" ry="29"/><path fill="#9cb8ba" d="M206 20l-63 14-5 62z"/><ellipse fill="#27592e" rx="1" ry="1" transform="matrix(-12.50344 -13.50249 37.45565 -34.68431 44.8 86.6)"/><ellipse fill="#335847" cx="255" cy="143" rx="68" ry="106"/></g></svg>