<svg xmlns="http://www.w3.org/2000/svg" viewBox="0 0 1600 900"><filter id="b"><feGaussianBlur stdDeviation="12" /></filter><path fill="#8c6027" d="M0 0h1600v900H0z"/><g filter="url(#b)" transform="matrix(6.25 0 0 6.25 3.1 3.1)" fill-opacity=".5"><ellipse fill="#000012" rx="1" ry="1" transform="rotate(-170.4 22.5 60.6) scale(85.85405 19.5548)"/><ellipse rx="1" ry="1" transform="matrix(1.64933 16.50977 -54.80433 5.47497 34.6 65.8)"/><ellipse fill="#d58f28" cx="150" cy="73" rx="70" ry="70"/><path d="M268.8 126.7l-3 24.8-66.6-8.2 3-24.8z"/><ellipse fill="#f9ac38" rx="1" ry="1" transform="matrix(10.30963 -19.97455 42.56985 21.97194 47.2 13.1)"/><path fill="#e1dbc9" d="M45 86h32v26H45z"/><path fill="#120000" d="M234 21h22v59h-22z"/><path fill="#fdfdc7" d="M141 131h56v13h-56z"/></g></svg>