<svg xmlns="http://www.w3.org/2000/svg" viewBox="0 0 1600 900"><filter id="b"><feGaussianBlur stdDeviation="12" /></filter><path fill="#757e73" d="M0 0h1600v900H0z"/><g filter="url(#b)" transform="matrix(6.25 0 0 6.25 3.1 3.1)" fill-opacity=".5"><ellipse fill="#e1efff" cx="120" cy="23" rx="248" ry="27"/><ellipse fill="#153010" rx="1" ry="1" transform="matrix(-2.41557 -39.49423 254.5244 -15.56738 145.5 118.5)"/><path fill="#a17b63" d="M176.7 61.8l.6 38-142 2.4-.6-38z"/><ellipse fill="#f0e9e6" rx="1" ry="1" transform="matrix(-52.89322 -8.6616 3.68086 -22.47765 31.7 28.6)"/><ellipse fill="#7b6248" cx="127" cy="53" rx="25" ry="20"/><ellipse fill="#7494b9" rx="1" ry="1" transform="matrix(99.83907 7.6822 -1.627 21.14464 186.3 8.3)"/><ellipse fill="#725b42" rx="1" ry="1" transform="matrix(-2.46113 -20.92653 91.48058 -10.75884 17 73.8)"/><path fill="#b29e87" d="M105 21h13v77h-13z"/></g></svg>