<svg xmlns="http://www.w3.org/2000/svg" viewBox="0 0 1600 900"><filter id="b"><feGaussianBlur stdDeviation="12" /></filter><path fill="#525e61" d="M0 0h1600v900H0z"/><g filter="url(#b)" transform="matrix(6.25 0 0 6.25 3.1 3.1)" fill-opacity=".5"><ellipse fill="#abcad7" rx="1" ry="1" transform="matrix(-80.498 -13.99903 10.6151 -61.03948 174.5 0)"/><ellipse fill="#2f291f" rx="1" ry="1" transform="rotate(11.6 -557.2 579) scale(252.09071 42.70597)"/><ellipse fill="#1b1b15" rx="1" ry="1" transform="rotate(-90.6 32.3 29.2) scale(121.96931 27.94156)"/><ellipse fill="#9cb5be" cx="152" cy="34" rx="16" ry="84"/><ellipse fill="#576b77" rx="1" ry="1" transform="matrix(24.70991 -27.83144 64.21855 57.0159 111.4 60)"/><path fill="#35424a" d="M180 11h18v85h-18z"/><path fill="#1f2d34" d="M160 144l110 8-9-101z"/><ellipse fill="#cce2e4" rx="1" ry="1" transform="rotate(-91.2 76.8 -75.2) scale(17.35609 28.3004)"/></g></svg>