<svg xmlns="http://www.w3.org/2000/svg" viewBox="0 0 1600 900"><filter id="b"><feGaussianBlur stdDeviation="12" /></filter><path fill="#9d9b87" d="M0 0h1600v900H0z"/><g filter="url(#b)" transform="matrix(6.25 0 0 6.25 3.1 3.1)" fill-opacity=".5"><ellipse fill="#eff4ff" cx="101" cy="18" rx="255" ry="38"/><ellipse fill="#58561f" rx="1" ry="1" transform="matrix(28.4841 -27.74774 65.31818 67.05158 208 91.6)"/><ellipse fill="#574a09" rx="1" ry="1" transform="matrix(-67.62946 49.11728 -25.93435 -35.70894 36 111.4)"/><ellipse fill="#f3f6ff" cx="228" cy="29" rx="41" ry="32"/><path fill="#63635c" d="M56.8 39l57.9 47.5 6.9-65.5-62.1 5.8z"/><ellipse fill="#fff" rx="1" ry="1" transform="matrix(28.2167 56.86096 -44.46956 22.06758 7.2 0)"/><ellipse fill="#fff" cx="107" cy="2" rx="226" ry="14"/><ellipse fill="#4a4a5c" rx="1" ry="1" transform="matrix(10.55003 9.94184 -13.94754 14.80077 186.1 34)"/></g></svg>