<svg xmlns="http://www.w3.org/2000/svg" viewBox="0 0 1600 900"><filter id="b"><feGaussianBlur stdDeviation="12" /></filter><path fill="#b6be8a" d="M0 0h1600v900H0z"/><g filter="url(#b)" transform="matrix(6.25 0 0 6.25 3.1 3.1)" fill-opacity=".5"><path fill="#00002d" d="M284.6-8.3l-20.7 63.7-126.5-41 20.7-63.8z"/><ellipse fill="#fff" rx="1" ry="1" transform="matrix(-103.83579 -110.24309 37.93176 -35.72718 35.1 112)"/><ellipse fill="#b4b800" rx="1" ry="1" transform="matrix(-19.1006 -57.14005 47.056 -15.72974 115.4 48.3)"/><ellipse fill="#ecfff6" cx="209" cy="83" rx="20" ry="53"/><path fill="#00311e" d="M107.3 48.2L104-.3 65 2.8l22.3-6.7z"/><ellipse fill="#22044f" rx="1" ry="1" transform="matrix(16.94537 33.98716 -22.69105 11.31334 254.9 34)"/><path fill="#fff" d="M230 18l-26-9 11-22z"/><ellipse fill="#b7ddd5" cx="42" cy="13" rx="28" ry="52"/></g></svg>