<svg xmlns="http://www.w3.org/2000/svg" viewBox="0 0 1600 900"><filter id="b"><feGaussianBlur stdDeviation="12" /></filter><path fill="#a59872" d="M0 0h1600v900H0z"/><g filter="url(#b)" transform="matrix(6.25 0 0 6.25 3.1 3.1)" fill-opacity=".5"><ellipse fill="ivory" cx="96" cy="10" rx="158" ry="40"/><ellipse fill="#362911" rx="1" ry="1" transform="matrix(-123.2604 3.1354 -1.48765 -58.48328 232.6 115.9)"/><ellipse fill="#5c512e" rx="1" ry="1" transform="matrix(-22.79799 -16.9931 27.96557 -37.51869 23 107)"/><ellipse fill="#ffffd8" rx="1" ry="1" transform="matrix(-115.2661 .36754 -.1165 -36.5336 78.6 0)"/><ellipse fill="#fff59a" rx="1" ry="1" transform="matrix(4.05874 -18.7724 22.9388 4.95955 75.4 124.8)"/><path fill="#81734f" d="M144 136L46 86l225-47z"/><ellipse fill="#403926" rx="1" ry="1" transform="rotate(17.4 -269.5 842) scale(56.25206 35.34034)"/><ellipse fill="#d6be88" rx="1" ry="1" transform="matrix(-147.07714 26.01797 -2.8858 -16.31312 176 32)"/></g></svg>