<svg xmlns="http://www.w3.org/2000/svg" viewBox="0 0 1600 900"><filter id="b"><feGaussianBlur stdDeviation="12" /></filter><path fill="#a7a4a0" d="M0 0h1600v900H0z"/><g filter="url(#b)" transform="matrix(6.25 0 0 6.25 3.1 3.1)" fill-opacity=".5"><ellipse fill="#39352b" rx="1" ry="1" transform="matrix(-15.78776 -38.68672 16.89066 -6.89295 186 89.7)"/><ellipse fill="#c6c9cd" cx="56" cy="54" rx="100" ry="54"/><ellipse fill="#c09052" rx="1" ry="1" transform="matrix(-.57442 -21.93627 193.56753 -5.06874 133 141.5)"/><ellipse fill="#566973" rx="1" ry="1" transform="matrix(-168.96216 6.47805 -.233 -6.0774 136.9 117.1)"/><path fill="#181100" d="M144 117h67v4h-67z"/><path fill="#343c49" d="M161.6 74.7l14-26.5 24.8 13.1-14 26.5z"/><ellipse fill="#83a2b8" rx="1" ry="1" transform="matrix(1.2491 -17.4559 205.53266 14.70728 128.3 1.1)"/><ellipse fill="#aeaba9" cx="216" cy="84" rx="25" ry="25"/></g></svg>