<svg xmlns="http://www.w3.org/2000/svg" viewBox="0 0 1600 900"><filter id="b"><feGaussianBlur stdDeviation="12" /></filter><path fill="#586361" d="M0 0h1600v900H0z"/><g filter="url(#b)" transform="matrix(6.25 0 0 6.25 3.1 3.1)" fill-opacity=".5"><ellipse fill="#d6ccb5" rx="1" ry="1" transform="matrix(54.67378 2.72736 -1.6721 33.51948 46 42.7)"/><ellipse fill="#00081a" rx="1" ry="1" transform="rotate(105.2 69 140.3) scale(255 42.5939)"/><ellipse fill="#848980" rx="1" ry="1" transform="matrix(97.1992 -71.70628 20.20934 27.39414 56.2 93.3)"/><ellipse fill="#e1d4ae" rx="1" ry="1" transform="rotate(-21.3 370.5 -298.3) scale(17.40854 8.56469)"/><ellipse fill="#113037" rx="1" ry="1" transform="matrix(-15.51375 -19.9243 47.9392 -37.3271 169.5 126.7)"/><ellipse fill="#f3e3b9" cx="181" cy="82" rx="14" ry="7"/><path fill="#00111f" d="M157 157L65 82l38 53z"/><path fill="#d7d0bb" d="M69.8 49.2L-16 36 82.7 6.8 80 26.3z"/></g></svg>