<svg xmlns="http://www.w3.org/2000/svg" viewBox="0 0 1600 900"><filter id="b"><feGaussianBlur stdDeviation="12" /></filter><path fill="#867d74" d="M0 0h1600v900H0z"/><g filter="url(#b)" transform="matrix(6.25 0 0 6.25 3.1 3.1)" fill-opacity=".5"><ellipse fill="#fff" rx="1" ry="1" transform="rotate(-2.4 948.2 -4056.1) scale(163.30736 36.60728)"/><ellipse rx="1" ry="1" transform="matrix(-154.85588 -27.46751 9.4475 -53.2629 114 131.6)"/><ellipse fill="#140300" rx="1" ry="1" transform="rotate(83.7 -37.4 91.8) scale(42.59291 91.38573)"/><ellipse fill="#fffde5" rx="1" ry="1" transform="matrix(-104.1095 4.02577 -.8683 -22.45513 172.7 45)"/><ellipse fill="#a27255" rx="1" ry="1" transform="matrix(-72.53517 15.52426 -5.77926 -27.00289 204.5 97)"/><path fill="#6992b0" d="M-28.7.9L112-58.9l24.6 58L-4 58.9z"/><ellipse fill="#ffd892" cx="75" cy="62" rx="255" ry="7"/><path fill="#1c0600" d="M131.4 171.2l-5.6-31.5 140.8-24.9 5.6 31.5z"/></g></svg>