<svg xmlns="http://www.w3.org/2000/svg" viewBox="0 0 1600 900"><filter id="c"><feGaussianBlur stdDeviation="55" /></filter><path fill="#4b564f" d="M0 0h1600v900H0z"/><g filter='url(#c)' fill-opacity='.5'><ellipse fill="#f1e4dc" fill-opacity=".5" rx="1" ry="1" transform="matrix(479.9731 16.4033 -9.04886 264.77646 822.9 872.1)"/><ellipse fill-opacity=".5" rx="1" ry="1" transform="matrix(24.80318 -280.21822 451.94576 40.00343 196.1 352.5)"/><path fill="#acd4ff" fill-opacity=".5" d="M203.1-34.4l656.3 362.5 400-418.7z"/><ellipse fill-opacity=".5" rx="1" ry="1" transform="matrix(548.55539 -81.55392 28.63816 192.62856 1427.8 355.2)"/><ellipse fill-opacity=".5" rx="1" ry="1" transform="rotate(-175.6 99.5 172.7) scale(460.30498 167.19894)"/><ellipse fill="#7b8444" fill-opacity=".5" rx="1" ry="1" transform="matrix(-75.97679 125.8053 -304.36552 -183.8135 1412.7 776.2)"/><path fill="#d8cfc5" fill-opacity=".5" d="M37 996.9L374.5 776l-46 190.2-122.6-58.6z"/><path fill="#101914" fill-opacity=".5" d="M1646.9 546.9l-12.5-456.3L521.9 397z"/></g></svg>