<svg xmlns="http://www.w3.org/2000/svg" viewBox="0 0 1600 900"><filter id="b"><feGaussianBlur stdDeviation="12" /></filter><path fill="#353530" d="M0 0h1600v900H0z"/><g filter="url(#b)" transform="matrix(6.25 0 0 6.25 3.1 3.1)" fill-opacity=".5"><ellipse fill="#dfdad6" rx="1" ry="1" transform="matrix(-38.79712 49.12567 -20.332 -16.05724 136.6 83.8)"/><path fill="#fff" d="M120 61l-18 24-24-18 18-24z"/><ellipse fill="#000100" rx="1" ry="1" transform="rotate(80.9 -40 67.3) scale(255 47.04734)"/><ellipse fill="#010500" cx="231" cy="132" rx="93" ry="60"/><ellipse fill="#0d120b" rx="1" ry="1" transform="matrix(17.79072 -21.42902 9.32758 7.74391 94.3 112.9)"/><path fill="#cebebb" d="M173 71l-70 56 59-105z"/><ellipse fill="#030602" rx="1" ry="1" transform="matrix(8.10092 -35.65632 49.13604 11.16343 255.1 25.6)"/><ellipse fill="#060c07" rx="1" ry="1" transform="rotate(-169.2 67.9 13.5) scale(13.07815 27.5993)"/></g></svg>