<svg xmlns="http://www.w3.org/2000/svg" viewBox="0 0 1600 900"><filter id="b"><feGaussianBlur stdDeviation="12" /></filter><path fill="#6f7570" d="M0 0h1600v900H0z"/><g filter="url(#b)" transform="matrix(6.25 0 0 6.25 3.1 3.1)" fill-opacity=".5"><ellipse fill="#dcd7d8" cx="152" cy="96" rx="143" ry="24"/><ellipse rx="1" ry="1" transform="matrix(-128.7592 89.95007 -19.42385 -27.80431 31 20.8)"/><ellipse fill="#000800" rx="1" ry="1" transform="matrix(-11.29087 31.80888 -158.77935 -56.3603 194.7 0)"/><ellipse fill="#bcb8b7" rx="1" ry="1" transform="matrix(4.71218 20.64093 -40.41135 9.22563 88 47.5)"/><ellipse fill="#203027" rx="1" ry="1" transform="rotate(-115.6 152.1 4) scale(21.08781 162.07078)"/><ellipse fill="#0a1e11" rx="1" ry="1" transform="rotate(13.1 -618 112.2) scale(94.78324 26.42563)"/><ellipse fill="#cbc5c5" rx="1" ry="1" transform="rotate(169 101.6 48.8) scale(44.80653 16.93322)"/><ellipse fill="#aea8a9" rx="1" ry="1" transform="matrix(5.34242 -13.35701 34.1607 13.6633 165.1 42.7)"/></g></svg>