<svg xmlns="http://www.w3.org/2000/svg" viewBox="0 0 1600 900"><filter id="b"><feGaussianBlur stdDeviation="12" /></filter><path fill="#473526" d="M0 0h1600v900H0z"/><g filter="url(#b)" transform="matrix(6.25 0 0 6.25 3.1 3.1)" fill-opacity=".5"><ellipse fill="#dc9b65" rx="1" ry="1" transform="rotate(52.3 -56.9 75.1) scale(48.95974 60.9977)"/><ellipse fill="#0f0e0a" rx="1" ry="1" transform="rotate(95.3 78 120) scale(163.34507 113.92744)"/><ellipse fill="#706c65" rx="1" ry="1" transform="matrix(-6.832 20.66398 -29.67275 -9.8105 175 77)"/><ellipse fill="#314457" cx="11" cy="76" rx="14" ry="141"/><path fill="#e3a467" d="M23 24h27v93H23z"/><path fill="#b66324" d="M44 23h48v92H44z"/><ellipse fill="#c4cbc5" rx="1" ry="1" transform="matrix(-8.30345 1.13052 -1.42885 -10.49461 161 82.9)"/><path fill="#ffaa42" d="M202.3 31l7 23-9.6 3-7-23z"/></g></svg>