<svg xmlns="http://www.w3.org/2000/svg" viewBox="0 0 1600 900"><filter id="b"><feGaussianBlur stdDeviation="12" /></filter><path fill="#8f8f91" d="M0 0h1600v900H0z"/><g filter="url(#b)" transform="matrix(6.25 0 0 6.25 3.1 3.1)" fill-opacity=".5"><ellipse fill="#181b1b" rx="1" ry="1" transform="matrix(2.03404 18.7237 -103.12725 11.2032 221.7 90.9)"/><ellipse fill="#3d4044" cx="35" cy="109" rx="70" ry="22"/><ellipse fill="#b9b9bb" cx="141" cy="13" rx="113" ry="75"/><path fill="#ebebe5" d="M242.8 137.4l-156.3-3L218 103l52.9 31.2z"/><path d="M114.4 66.3l28-4.8 3.2-18.2-18 16z"/><ellipse fill="#282413" rx="1" ry="1" transform="rotate(70.1 -95.2 81.2) scale(7.45706 29.1723)"/><ellipse fill="#434342" rx="1" ry="1" transform="matrix(60.54053 20.82562 -8.08017 23.48924 255 93.2)"/><ellipse fill="#282a2c" cx="192" cy="102" rx="14" ry="14"/></g></svg>