<svg xmlns="http://www.w3.org/2000/svg" viewBox="0 0 1600 900"><filter id="b"><feGaussianBlur stdDeviation="12" /></filter><path fill="#709dad" d="M0 0h1600v900H0z"/><g filter="url(#b)" transform="matrix(6.25 0 0 6.25 3.1 3.1)" fill-opacity=".5"><ellipse cx="130" cy="143" rx="53" ry="38"/><ellipse fill="#d0e6f3" rx="1" ry="1" transform="matrix(-3.50198 -33.86027 85.41687 -8.8342 53.1 67.3)"/><ellipse fill="#005486" rx="1" ry="1" transform="matrix(-14.97541 -24.15287 56.71667 -35.16583 203.3 47.2)"/><ellipse fill="#fff3ed" rx="1" ry="1" transform="matrix(-46.14079 15.47665 -5.39471 -16.08334 198 99.4)"/><ellipse fill="#eee8ea" rx="1" ry="1" transform="matrix(38.3547 -8.00635 9.5277 45.64283 35.2 128.6)"/><ellipse fill="#fff" rx="1" ry="1" transform="matrix(-27.65518 11.66868 -7.01868 -16.63451 151.8 11.5)"/><ellipse fill="#007cb2" rx="1" ry="1" transform="matrix(-85.35395 4.92148 -1.06654 -18.49715 39 13.9)"/><ellipse fill="#000200" rx="1" ry="1" transform="matrix(62.54128 6.24584 -2.04305 20.45766 139.5 143)"/></g></svg>