<svg xmlns="http://www.w3.org/2000/svg" viewBox="0 0 1600 900"><filter id="b"><feGaussianBlur stdDeviation="12" /></filter><path fill="#726c5f" d="M0 0h1600v900H0z"/><g filter="url(#b)" transform="matrix(6.25 0 0 6.25 3.1 3.1)" fill-opacity=".5"><path fill="#fff" d="M156 94L235-8-6-16z"/><ellipse rx="1" ry="1" transform="matrix(91.43403 81.82915 -39.46948 44.1023 44.9 103)"/><ellipse rx="1" ry="1" transform="matrix(26.32453 24.85481 -38.02098 40.26925 238.5 54)"/><ellipse fill="#faffff" cx="135" cy="16" rx="81" ry="45"/><ellipse fill="#fff" rx="1" ry="1" transform="matrix(35.81173 -14.5789 3.31186 8.13527 126.7 109)"/><ellipse fill="#170b07" rx="1" ry="1" transform="rotate(129.4 74.4 87) scale(180.16471 13.82289)"/><path fill="#241601" d="M-16 143V56l203 25z"/><path fill="#d6b559" d="M271 110l-53 49-37-73z"/></g></svg>