<svg xmlns="http://www.w3.org/2000/svg" viewBox="0 0 1600 900"><filter id="b"><feGaussianBlur stdDeviation="12" /></filter><path fill="#88847c" d="M0 0h1600v900H0z"/><g filter="url(#b)" transform="matrix(6.25 0 0 6.25 3.1 3.1)" fill-opacity=".5"><ellipse fill="#fff" rx="1" ry="1" transform="rotate(91.2 57.7 74.7) scale(30.80181 254.99997)"/><ellipse fill="#1a0d00" rx="1" ry="1" transform="matrix(7.55402 -39.59958 190.83401 36.40353 122.8 101.9)"/><ellipse fill="#fff" rx="1" ry="1" transform="rotate(-88 91.7 -81) scale(33.044 154.22972)"/><path fill="#b1a58d" d="M27 58h73v24H27z"/><path fill="#1c1004" d="M96 100h87v44H96z"/><ellipse cx="54" cy="103" rx="17" ry="23"/><path fill="#d2bb9a" d="M28 25h11v80H28z"/><path fill="#fcfbff" d="M71.8 127.2l58.7 31.8-59-24-15.9-8z"/></g></svg>