<svg xmlns="http://www.w3.org/2000/svg" viewBox="0 0 1600 900"><filter id="b"><feGaussianBlur stdDeviation="12" /></filter><path fill="#b6b5b2" d="M0 0h1600v900H0z"/><g filter="url(#b)" transform="matrix(6.25 0 0 6.25 3.1 3.1)" fill-opacity=".5"><ellipse fill="#474336" rx="1" ry="1" transform="rotate(101.8 61.9 140.9) scale(101.58249 57.4918)"/><path fill="#fff" d="M89 159L208-16-16-5z"/><path fill="#596f79" d="M31 89.1l2.9 80-53 1.8-2.8-80z"/><ellipse fill="#b9aa9e" rx="1" ry="1" transform="matrix(18.17605 .51421 -1.26188 44.60428 153.6 72.3)"/><ellipse fill="#fffeff" rx="1" ry="1" transform="matrix(-1.96518 -18.49098 155.68064 -16.54538 134.7 5.3)"/><path fill="#283c41" d="M148 163.8l-15.8-21.9 43.7-31.7 15.9 21.9z"/><ellipse fill="#6f6e66" cx="208" cy="43" rx="34" ry="34"/><path fill="#e9daca" d="M231 0h25v37h-25z"/></g></svg>