<svg xmlns="http://www.w3.org/2000/svg" viewBox="0 0 1600 900"><filter id="b"><feGaussianBlur stdDeviation="12" /></filter><path fill="#7a7a7a" d="M0 0h1600v900H0z"/><g filter="url(#b)" transform="matrix(6.25 0 0 6.25 3.1 3.1)" fill-opacity=".5"><ellipse fill="#fff" rx="1" ry="1" transform="matrix(234.44117 -3.32479 .25844 18.22362 129.2 6.1)"/><ellipse fill="#080808" rx="1" ry="1" transform="matrix(16.0057 -49.68632 242.71728 78.18775 47.7 135.8)"/><ellipse fill="#fff" rx="1" ry="1" transform="rotate(87.7 56.2 59.8) scale(21.17537 149.53132)"/><path fill="#0b0b0b" d="M187 49l76 12 8-45z"/><ellipse fill="#202020" rx="1" ry="1" transform="matrix(-5.85018 -18.03565 52.65097 -17.07828 5.7 51.3)"/><ellipse fill="#717171" cx="69" cy="73" rx="38" ry="38"/><path fill="#bebebe" d="M169 95h39v34h-39z"/><path fill="#939393" d="M128 17l102 4-113 98z"/></g></svg>