<svg xmlns="http://www.w3.org/2000/svg" viewBox="0 0 1600 900"><filter id="b"><feGaussianBlur stdDeviation="12" /></filter><path fill="#41494b" d="M0 0h1600v900H0z"/><g filter="url(#b)" transform="matrix(6.25 0 0 6.25 3.1 3.1)" fill-opacity=".5"><ellipse fill="#ffffc8" cx="119" cy="21" rx="12" ry="12"/><ellipse fill="#1b0e08" rx="1" ry="1" transform="rotate(27.2 -199.8 343.4) scale(62.96721 42.69493)"/><ellipse fill="#230400" rx="1" ry="1" transform="matrix(32.71847 -8.95076 8.51161 31.11322 161.2 21.7)"/><ellipse fill="#567a8e" cx="31" rx="65" ry="65"/><ellipse fill="#4e8094" rx="1" ry="1" transform="matrix(27.23761 89.97856 -25.74537 7.79344 232.8 14.6)"/><ellipse fill="#5a3725" rx="1" ry="1" transform="matrix(17.77134 -25.47461 33.85667 23.61874 106.7 60)"/><path fill="#ffe29c" d="M109.2 25.5l19 16.5L126 8.2 105.7 20z"/><path fill="#81706d" d="M57 62h107v13H57z"/></g></svg>