<svg xmlns="http://www.w3.org/2000/svg" viewBox="0 0 1600 900"><filter id="b"><feGaussianBlur stdDeviation="12" /></filter><path fill="#626e89" d="M0 0h1600v900H0z"/><g filter="url(#b)" transform="matrix(6.25 0 0 6.25 3.1 3.1)" fill-opacity=".5"><ellipse fill="#23342a" rx="1" ry="1" transform="matrix(20.05428 31.96925 -93.8203 58.85336 77 93.5)"/><ellipse fill="#c7c5ff" rx="1" ry="1" transform="rotate(-62.2 78.9 -130.8) scale(28.59378 179.15844)"/><ellipse fill="#0a152e" rx="1" ry="1" transform="matrix(61.1944 -30.0425 16.26349 33.12755 243.2 132.4)"/><ellipse fill="#9199d9" rx="1" ry="1" transform="matrix(1.62532 67.62675 -22.92556 .55099 27.5 49.8)"/><ellipse fill="#a6b5e6" rx="1" ry="1" transform="matrix(17.42616 11.03463 -25.1099 39.65416 186.4 87.7)"/><ellipse fill="#d8d3ff" cx="85" cy="2" rx="13" ry="26"/><ellipse fill="#94a7d4" cx="140" cy="108" rx="22" ry="22"/><path fill="#2b4126" d="M151.2 33.5l11.1-14.1 24.5 19-11.1 14.2z"/></g></svg>