<svg xmlns="http://www.w3.org/2000/svg" viewBox="0 0 1600 900"><filter id="b"><feGaussianBlur stdDeviation="12" /></filter><path fill="#818b98" d="M0 0h1600v900H0z"/><g filter="url(#b)" transform="matrix(6.25 0 0 6.25 3.1 3.1)" fill-opacity=".5"><ellipse fill="#001820" rx="1" ry="1" transform="rotate(172.3 3.9 38.4) scale(47.48361 92.8946)"/><ellipse fill="#edeafa" rx="1" ry="1" transform="rotate(177.1 90 57.8) scale(112.59153 27.25301)"/><ellipse cx="128" cy="67" rx="51" ry="22"/><ellipse fill="#fff" rx="1" ry="1" transform="rotate(-10 244.4 -557.3) scale(76.62168 15.92731)"/><path fill="#062a36" d="M190 84h30v22h-30z"/><ellipse fill="#fff" rx="1" ry="1" transform="matrix(7.55514 11.5016 -37.54473 24.66228 154.9 103)"/><path fill="#000c13" d="M277 42.1l-29.4 6.3-14.5-68.5 29.3-6.3z"/><ellipse fill="#fff2ff" rx="1" ry="1" transform="matrix(-58.92127 53.42655 -9.56762 -10.55161 119 12.7)"/></g></svg>