<svg xmlns="http://www.w3.org/2000/svg" viewBox="0 0 1600 900"><filter id="b"><feGaussianBlur stdDeviation="12" /></filter><path fill="#eac5a6" d="M0 0h1600v900H0z"/><g filter="url(#b)" transform="matrix(6.25 0 0 6.25 3.1 3.1)" fill-opacity=".5"><ellipse fill="#ffffe4" rx="1" ry="1" transform="matrix(-3.02598 32.6191 -163.12827 -15.13295 157.7 15.9)"/><ellipse fill="#c69977" rx="1" ry="1" transform="matrix(-250.65198 -46.88905 8.23379 -44.01487 128.8 143)"/><path fill="#000023" d="M103.6 115.6l-1.7-8.8 22.5-4.4 1.7 8.8z"/><ellipse fill="#d2a585" rx="1" ry="1" transform="matrix(1.28284 57.66154 -30.44317 .6773 14.8 98.2)"/><ellipse fill="#ffd6b5" rx="1" ry="1" transform="rotate(101.2 67 92.3) scale(22.23437 124.76434)"/><ellipse fill="#ffffec" cx="143" cy="3" rx="255" ry="10"/><ellipse fill="#000026" cx="76" cy="52" rx="6" ry="3"/><ellipse fill="#e5ba99" cx="199" cy="108" rx="76" ry="31"/></g></svg>