<svg xmlns="http://www.w3.org/2000/svg" viewBox="0 0 1600 900"><filter id="b"><feGaussianBlur stdDeviation="12" /></filter><path fill="#454749" d="M0 0h1600v900H0z"/><g filter="url(#b)" transform="matrix(6.25 0 0 6.25 3.1 3.1)" fill-opacity=".5"><ellipse fill="#ff6c67" rx="1" ry="1" transform="matrix(46.5426 12.1395 -8.5868 32.9216 97.8 82.5)"/><ellipse fill="#093340" rx="1" ry="1" transform="rotate(-18.7 251.6 -608.4) scale(62.67459 114.07545)"/><path fill="#f4fbfc" d="M12 77.1l-6 57.7-18-1.9 6-57.7z"/><ellipse fill="#ffe0ff" cx="155" cy="57" rx="16" ry="4"/><path fill="#bfc3c3" d="M267 71l-36-3 3 17z"/><ellipse fill="#f37b71" rx="1" ry="1" transform="matrix(-2.782 -14.0795 36.09857 -7.1328 80.3 65.7)"/><ellipse fill="#162933" rx="1" ry="1" transform="matrix(-2.16925 -18.7483 68.81708 -7.9624 81 135.8)"/><ellipse fill="#ff0037" rx="1" ry="1" transform="matrix(1.06684 -17.44269 4.23984 .25932 18.1 117.9)"/></g></svg>