<svg xmlns="http://www.w3.org/2000/svg" viewBox="0 0 1600 900"><filter id="b"><feGaussianBlur stdDeviation="12" /></filter><path fill="#b9b9b0" d="M0 0h1600v900H0z"/><g filter="url(#b)" transform="matrix(6.25 0 0 6.25 3.1 3.1)" fill-opacity=".5"><ellipse rx="1" ry="1" transform="matrix(29.48248 -24.82655 16.96047 20.1412 128.9 111.7)"/><path fill="#fff" d="M67.7 196.8l-139-50.6 39.6-109 139 50.6z"/><ellipse fill="#f7fcff" cx="220" cy="102" rx="55" ry="55"/><ellipse fill="#715c3d" rx="1" ry="1" transform="matrix(-.77904 12.32027 -85.40225 -5.40017 115.2 46.8)"/><ellipse fill="#1a0911" rx="1" ry="1" transform="matrix(-31.46466 32.5905 -11.36564 -10.97301 125.4 108.8)"/><ellipse fill="#9faf63" cx="52" cy="20" rx="46" ry="46"/><ellipse fill="#fafbff" rx="1" ry="1" transform="matrix(11.0405 -37.169 22.70658 6.74465 220.2 11)"/><path fill="#602e1c" d="M103 55l61-3-45-26z"/></g></svg>