<svg xmlns="http://www.w3.org/2000/svg" viewBox="0 0 1600 900"><filter id="b"><feGaussianBlur stdDeviation="12" /></filter><path fill="#555" d="M0 0h1600v900H0z"/><g filter="url(#b)" transform="matrix(6.25 0 0 6.25 3.1 3.1)" fill-opacity=".5"><ellipse fill="#c2c2c2" rx="1" ry="1" transform="matrix(5.32278 -109.96224 31.7135 1.5351 83.2 66.8)"/><ellipse fill="#090909" rx="1" ry="1" transform="rotate(-175.5 128.2 38.5) scale(54.18072 171.53185)"/><ellipse fill="#1e1e1e" rx="1" ry="1" transform="rotate(139 55.2 99.6) scale(35.88806 60.59095)"/><ellipse fill="#e1e1e1" cx="93" cy="85" rx="8" ry="109"/><ellipse fill="#898989" rx="1" ry="1" transform="matrix(21.11903 9.1421 -31.23222 72.14902 6.5 68)"/><ellipse fill="#0e0e0e" rx="1" ry="1" transform="matrix(-8.26603 36.58095 -15.11075 -3.4145 32.4 123.4)"/><ellipse fill="#343434" cx="142" cy="14" rx="31" ry="255"/><ellipse fill="#c5c5c5" cx="178" cy="57" rx="4" ry="51"/></g></svg>