<svg xmlns="http://www.w3.org/2000/svg" viewBox="0 0 1600 900"><filter id="b"><feGaussianBlur stdDeviation="12" /></filter><path fill="#99a8b6" d="M0 0h1600v900H0z"/><g filter="url(#b)" transform="matrix(6.25 0 0 6.25 3.1 3.1)" fill-opacity=".5"><ellipse fill="#6e563c" rx="1" ry="1" transform="rotate(-173.3 49.2 50.4) scale(29.96413 118.39319)"/><ellipse fill="#b6e8ff" rx="1" ry="1" transform="matrix(49.48378 -14.75176 72.85053 244.37226 234.7 32)"/><ellipse fill="#58b2ff" rx="1" ry="1" transform="matrix(-58.90194 140.80962 -38.74038 -16.20545 4.8 69)"/><ellipse fill="#cbb190" rx="1" ry="1" transform="matrix(-33.85783 -89.84793 38.3033 -14.43402 175.4 92.4)"/><ellipse fill="#86c4ff" rx="1" ry="1" transform="matrix(-41.13293 -112.52742 39.25433 -14.3489 254.1 67.5)"/><ellipse fill="#433d2f" cx="132" cy="74" rx="3" ry="79"/><path fill="#201d17" d="M118.5 159l3.9-99.9 2.3-48.9-11.2 74.9z"/><ellipse fill="#fffffa" cx="126" cy="96" rx="3" ry="115"/></g></svg>