<svg xmlns="http://www.w3.org/2000/svg" viewBox="0 0 1600 900"><filter id="b"><feGaussianBlur stdDeviation="12" /></filter><path fill="#374b37" d="M0 0h1600v900H0z"/><g filter="url(#b)" transform="matrix(6.25 0 0 6.25 3.1 3.1)" fill-opacity=".5"><ellipse fill="#789677" rx="1" ry="1" transform="matrix(63.29192 42.26796 -9.62773 14.41654 144.6 82.8)"/><ellipse fill="#000003" cx="12" cy="96" rx="45" ry="45"/><path fill="#688a80" d="M77 71h29v63H77z"/><path fill="#6b8a5a" d="M180 25h40v65h-40z"/><ellipse fill="#020a04" rx="1" ry="1" transform="matrix(-27.39942 -38.9748 16.5988 -11.66902 14.1 2)"/><ellipse fill="#030c06" rx="1" ry="1" transform="matrix(-22.36598 -4.18433 7.7513 -41.43203 255 29.7)"/><path fill="#98b49a" d="M128 59h32v24h-32z"/><ellipse rx="1" ry="1" transform="matrix(16.52613 16.43785 -10.42073 10.4767 196.2 .2)"/></g></svg>